<?xml version="1.0" encoding="UTF-8"?>
<svg id="Layer_1" xmlns="http://www.w3.org/2000/svg" version="1.1" viewBox="0 0 512 512">
  <!-- Generator: Adobe Illustrator 29.2.1, SVG Export Plug-In . SVG Version: 2.1.0 Build 116)  -->
  <defs>
    <style>
      .st0 {
        fill: #6d2b8b;
      }

      .st1 {
        fill: #231f20;
      }

      .st2 {
        fill: none;
        stroke: #00b26b;
        stroke-linecap: round;
        stroke-miterlimit: 10;
        stroke-width: 10px;
      }
    </style>
  </defs>
  <path class="st0" d="M247,16v23.2c-112.6,4.6-203.2,95.2-207.8,207.8h-23.2v18h23.2c4.6,112.6,95.2,203.2,207.8,207.8v23.2h18v-23.2c112.6-4.6,203.2-95.2,207.8-207.8h23.2v-18h-23.2c-4.6-112.6-95.2-203.2-207.8-207.8v-23.2h-18ZM247,57.2v22.8h18v-22.8c102.8,4.6,185.2,87,189.8,189.8h-22.8v18h22.8c-4.6,102.8-87,185.2-189.8,189.8v-22.8h-18v22.8c-102.8-4.6-185.2-87-189.8-189.8h22.8v-18h-22.8c4.6-102.8,87-185.2,189.8-189.8Z"/>
  <rect class="st1" x="136" y="129" width="243" height="250" rx="24.8" ry="24.8"/>
  <line class="st2" x1="230" y1="164" x2="354" y2="164"/>
  <line class="st2" x1="170" y1="199.8" x2="354" y2="199.8"/>
  <line class="st2" x1="170" y1="235.6" x2="354" y2="235.6"/>
  <line class="st2" x1="170" y1="271.4" x2="354" y2="271.4"/>
  <line class="st2" x1="170" y1="307.2" x2="354" y2="307.2"/>
  <line class="st2" x1="169" y1="343" x2="273" y2="343"/>
</svg>