<?xml version="1.0" encoding="UTF-8"?>
<svg id="Layer_1" xmlns="http://www.w3.org/2000/svg" version="1.1" viewBox="0 0 512 512">
  <!-- Generator: Adobe Illustrator 29.2.1, SVG Export Plug-In . SVG Version: 2.1.0 Build 116)  -->
  <defs>
    <style>
      .st0 {
        fill: #fff;
      }
    </style>
  </defs>
  <path class="st0" d="M124.8,388.9c4.8,4.8,10.4,8.7,16.6,11.6l-34.1,34.6c-5-12.9-15.3-23.1-28.3-28l34.2-34.6c3,6.1,6.9,11.6,11.7,16.4h-.1Z"/>
  <path class="st0" d="M83.7,430.6c-12.1-12-31.7-11.9-43.7.3-12,12.1-11.9,31.7.3,43.7,12.1,12,31.7,11.9,43.7-.3,12-12.1,12-31.6,0-43.6h0c0-.1-.1-.1-.1-.1Z"/>
  <path class="st0" d="M174.8,390c11.2,0,20.8-2.8,24.5-6.6l20.9-21.1-69.9-69-20.8,21.1c-8,8.1-11.2,43.1,7.9,61.9,10.1,10,24.8,13.7,37.5,13.7h0Z"/>
  <path class="st0" d="M398.9,391.2c4.8-4.8,8.7-10.4,11.6-16.6l34.6,34.1c-12.9,5-23.1,15.3-28,28.3l-34.6-34.2c6.1-3,11.6-6.9,16.4-11.7h0Z"/>
  <path class="st0" d="M122.5,181.6c33.1,32.8,79.1,57.8,124.9,103,9.2,9.1,37.4,40.3,53.6,58.3l48.6-49.2c-18.2-16-49.7-43.7-59-52.9-45.7-45.2-71.4-90.8-104.5-123.6C131.5,63.3,38.5,35,38.5,35c0,0,29.4,92.7,84,146.6h0Z"/>
  <path class="st0" d="M440.6,432.3c-12,12.1-11.9,31.7.3,43.7,12.1,12,31.7,11.9,43.7-.3,12-12.1,11.9-31.7-.3-43.7-12.1-12-31.6-12-43.6.1h-.1v.2Z"/>
  <path class="st0" d="M400,341.2c0-11.2-2.8-20.8-6.6-24.5l-21.1-20.9-69,69.9,21.1,20.8c8.1,8,43.1,11.2,61.9-7.9,10-10.1,13.7-24.8,13.7-37.5h0Z"/>
  <path class="st0" d="M122.5,181.6c33.1,32.8,79.1,57.8,124.9,103,9.2,9.1,37.4,40.3,53.6,58.3l48.6-49.2c-18.2-16-49.7-43.7-59-52.9-45.7-45.2-71.4-90.8-104.5-123.6C131.5,63.3,38.5,35,38.5,35c0,0,29.4,92.7,84,146.6h0Z"/>
  <g>
    <path class="st0" d="M334.4,112.5c-24,24.2-43.8,55.3-70.4,88.2,10.8,12.6,22.4,25.4,35.3,38.2,2.5,2.4,6.1,5.9,10.6,10,33.1-27.7,64.5-48.2,88.9-72.8,53.9-54.6,82.2-147.6,82.2-147.6,0,0-92.7,29.4-146.6,84Z"/>
    <path class="st0" d="M244.7,294.1c-12.6-12.4-25.2-23.6-37.6-34-11.6,10.6-24.6,22.4-34,30.8l49.2,48.6c8.7-9.9,20.9-23.8,31.7-35.9-3.8-4-7-7.3-9.3-9.6Z"/>
  </g>
  <polygon class="st0" points="259.3 199.1 240.7 177.8 205.7 77.6 255.8 177 296.6 118 268.6 188.5 259.3 199.1"/>
  <polygon class="st0" points="311.6 254.5 320.5 262.5 450 315.7 346.7 262.5 418.5 228.8 339.6 252.8 374.6 216.9 317.4 248.8 311.6 254.5"/>
  <polygon class="st0" points="258.4 303.3 246.9 316.2 218.5 378.3 256.2 321.9 257.1 445.6 266 332.1 283.7 360.1 269.5 315.3 258.4 303.3"/>
  <polygon class="st0" points="206.6 254.5 194.6 266.5 77.5 304.7 180.8 262.1 101 239.9 181.7 254.1 130.7 214.6 206.6 254.5"/>
</svg>